<svg viewBox="0 0 102 32" fill="none" xmlns="http://www.w3.org/2000/svg"> <path fill-rule="evenodd" clip-rule="evenodd" d="M9.74981 9.3108H16.998C17.6215 9.3108 18.1278 8.80498 18.1278 8.18097C18.1278 7.55747 17.6215 7.05115 16.998 7.05115H9.74981C9.1263 7.05115 8.62048 7.55747 8.62048 8.18097C8.62048 8.80498 9.1263 9.3108 9.74981 9.3108Z" fill="#FA4338"/> <mask id="mask0_4213_7265" style="mask-type:luminance" maskUnits="userSpaceOnUse" x="0" y="0" width="27" height="32"> <path fill-rule="evenodd" clip-rule="evenodd" d="M0 0H26.9943V32H0V0Z" fill="white"/> </mask> <g mask="url(#mask0_4213_7265)"> <path fill-rule="evenodd" clip-rule="evenodd" d="M24.7343 28.4733C24.7343 29.1729 24.1669 29.7408 23.4667 29.7408H3.52728C2.8271 29.7408 2.25965 29.1729 2.25965 28.4733V3.52645C2.25965 2.82682 2.8271 2.2589 3.52728 2.2589H23.4667C24.1669 2.2589 24.7343 2.82682 24.7343 3.52645V28.4733ZM24.1274 -0.000244141H2.86681C1.28365 -0.000244141 0 1.28333 0 2.86639V29.1333C0 30.7164 1.28365 32 2.86681 32H24.1274C25.7106 32 26.9943 30.7164 26.9943 29.1333V2.86639C26.9943 1.28333 25.7106 -0.000244141 24.1274 -0.000244141Z" fill="#FA4338"/> </g> <path fill-rule="evenodd" clip-rule="evenodd" d="M17.213 22.6893H10.8798V19.7821H14.4741C15.0976 19.7821 15.6034 19.2768 15.6034 18.6527C15.6034 18.0287 15.0976 17.5229 14.4741 17.5229H10.8798V14.8155H16.939C17.5631 14.8155 18.0689 14.3097 18.0689 13.6857C18.0689 13.0617 17.5631 12.5564 16.939 12.5564H9.74993C9.12642 12.5564 8.62061 13.0617 8.62061 13.6857V23.8191C8.62061 24.4426 9.12642 24.9489 9.74993 24.9489H17.213C17.837 24.9489 18.3428 24.4426 18.3428 23.8191C18.3428 23.1951 17.837 22.6893 17.213 22.6893Z" fill="#FA4338"/> <g clip-path="url(#clip0_4213_7265)"> <path fill-rule="evenodd" clip-rule="evenodd" d="M46.8076 22.6818H39.4673C39.3916 22.6818 39.3306 22.6207 39.3306 22.545V17.4133C39.3306 17.3376 39.3916 17.2765 39.4673 17.2765H44.6261C45.2491 17.2765 45.7685 16.7832 45.7685 16.1607C45.7685 15.5117 45.2491 15.0179 44.6261 15.0179H39.4673C39.3916 15.0179 39.3306 14.9568 39.3306 14.8812V9.44738C39.3306 9.37176 39.3911 9.31066 39.4673 9.31066H46.4966C47.1196 9.31066 47.6385 8.81737 47.6385 8.16832C47.6385 7.54481 47.1196 7.05151 46.4966 7.05151H38.1366C37.4871 7.05151 36.9156 7.62294 36.9156 8.29803V23.6944C36.9156 24.369 37.4871 24.9404 38.1366 24.9404H46.8076C47.4306 24.9404 47.95 24.4466 47.95 23.8241C47.95 23.1751 47.4306 22.6818 46.8076 22.6818Z" fill="#3F4450"/> <path fill-rule="evenodd" clip-rule="evenodd" d="M56.7689 12.5563C55.4443 12.5563 53.7055 13.1788 52.9783 14.6326V13.8804C52.9783 13.2309 52.4589 12.6855 51.7839 12.6855C51.1348 12.6855 50.616 13.2309 50.616 13.8804V23.8756C50.616 24.5246 51.1348 25.0705 51.7844 25.0705C52.4589 25.0705 52.9783 24.5246 52.9783 23.8756V18.3972C52.9783 15.8276 54.6916 14.867 56.4048 14.867C58.067 14.867 59.0791 16.0609 59.0791 18.0862V23.8756C59.0791 24.5246 59.5985 25.0705 60.2475 25.0705C60.9231 25.0705 61.442 24.5246 61.442 23.8756V17.9305C61.442 14.529 59.7808 12.5563 56.7689 12.5563Z" fill="#3F4450"/> <path fill-rule="evenodd" clip-rule="evenodd" d="M74.2931 12.7374C73.6701 12.5561 73.0987 12.8676 72.8392 13.5167L69.5905 21.8376C69.5454 21.9533 69.3817 21.9538 69.3361 21.8381L66.0628 13.5167C65.8034 12.8676 65.232 12.5561 64.609 12.7374C63.9599 12.8932 63.6479 13.6464 63.8557 14.2178L67.9058 23.9536C68.2178 24.6547 68.7111 25.0704 69.4122 25.0704H69.5419C70.2426 25.0704 70.7103 24.6547 70.9958 23.9536L75.0198 14.2178C75.2276 13.6464 74.9421 12.8932 74.2931 12.7374Z" fill="#3F4450"/> <path fill-rule="evenodd" clip-rule="evenodd" d="M82.9554 22.9153C80.7743 22.9153 78.9569 21.3057 78.9569 18.8392C78.9569 16.3987 80.7743 14.8668 82.9554 14.8668C85.1359 14.8668 86.9528 16.3987 86.9528 18.8392C86.9528 21.3057 85.1359 22.9153 82.9554 22.9153ZM82.9554 12.556C79.5018 12.556 76.6201 14.996 76.6201 18.8392C76.6201 22.6819 79.5018 25.2 82.9554 25.2C86.4084 25.2 89.3161 22.6819 89.3161 18.8392C89.3161 14.996 86.4084 12.556 82.9554 12.556Z" fill="#3F4450"/> <mask id="mask1_4213_7265" style="mask-type:luminance" maskUnits="userSpaceOnUse" x="90" y="12" width="12" height="19"> <path fill-rule="evenodd" clip-rule="evenodd" d="M90.1053 12.6819H101.994V30.9901H90.1053V12.6819Z" fill="white"/> </mask> <g mask="url(#mask1_4213_7265)"> <path fill-rule="evenodd" clip-rule="evenodd" d="M101.27 12.7631C100.673 12.5298 99.9718 12.8152 99.7384 13.4122L96.4897 21.2854C96.4431 21.3981 96.2834 21.3981 96.2368 21.2859L93.0146 13.4908C92.7542 12.8418 92.1577 12.5563 91.5086 12.7376C90.8856 12.9194 90.5997 13.6721 90.807 14.2691L95.0434 24.5242C95.0579 24.5582 95.0574 24.5958 95.0429 24.6293L94.3908 26.1863C93.6641 27.9001 93.1438 28.8607 91.5863 28.8607H91.2232C90.6518 28.8351 90.1329 29.2763 90.1064 29.8733C90.0803 30.4442 90.5476 30.912 91.1185 30.9636C91.4045 30.9901 91.5863 30.9901 91.6389 30.9901C94.183 30.9901 95.3253 29.8473 96.5448 27.0953L101.894 14.2956C102.153 13.6982 101.894 12.9975 101.27 12.7631Z" fill="#3F4450"/> </g> </g> <defs> <clipPath id="clip0_4213_7265"> <rect width="65" height="32" fill="white" transform="translate(36.9943)"/> </clipPath> </defs> </svg>