<svg xmlns:xlink="http://www.w3.org/1999/xlink" viewBox="0 0 122 35" fill="none" xmlns="http://www.w3.org/2000/svg"> <path d="M10.79 7.72365C10.79 7.85696 10.79 7.92361 10.7947 7.99122C10.8234 8.40818 11.0001 8.83473 11.2746 9.14987C11.3191 9.20098 11.3596 9.24141 11.4404 9.32227C11.8007 9.68251 12.2925 9.87793 12.802 9.87793H18.3224C19.4258 9.87793 19.9775 9.87793 20.3989 10.0927C20.7696 10.2815 21.071 10.5829 21.2599 10.9536C21.4746 11.3751 21.4746 11.9267 21.4746 13.0301V16.3635C21.4746 17.4668 21.4746 18.0185 21.2599 18.4399C21.071 18.8106 20.7696 19.112 20.3989 19.3009C19.9775 19.5156 19.4258 19.5156 18.3224 19.5156H12.7888C12.2847 19.5156 11.7979 19.709 11.4414 20.0654C11.3597 20.1471 11.3189 20.1879 11.2742 20.2393C11.0001 20.5542 10.8236 20.9803 10.7947 21.3968C10.79 21.4647 10.79 21.5314 10.79 21.6647V26.2599C10.79 27.3633 10.79 27.915 10.5753 28.3364C10.3864 28.7071 10.085 29.0085 9.71434 29.1974C9.29291 29.4121 8.74123 29.4121 7.63787 29.4121H3.15217C2.04881 29.4121 1.49713 29.4121 1.0757 29.1974C0.704998 29.0085 0.40361 28.7071 0.214729 28.3364C0 27.915 0 27.3633 0 26.2599V22.6981C0 21.5947 0 21.043 0.214729 20.6216C0.40361 20.2509 0.704998 19.9495 1.0757 19.7606C1.49713 19.5459 2.04881 19.5459 3.15217 19.5459H8.70118C8.72901 19.5459 8.74293 19.5459 8.75893 19.5456C9.24848 19.5377 9.74539 19.3319 10.0972 18.9913C10.1087 18.9802 10.1138 18.9751 10.124 18.9648C10.2195 18.8694 10.2672 18.8217 10.317 18.7635C10.5817 18.454 10.7525 18.0418 10.7841 17.6357C10.79 17.5594 10.79 17.4835 10.79 17.3319V12.0565C10.79 11.9048 10.79 11.829 10.784 11.7522C10.7523 11.3467 10.5818 10.9349 10.3174 10.6257C10.2674 10.5672 10.2193 10.5191 10.123 10.4229C9.76256 10.0624 9.27061 9.86621 8.76081 9.86621H3.15217C2.04881 9.86621 1.49713 9.86621 1.0757 9.65148C0.704998 9.4626 0.40361 9.16121 0.214729 8.79051C0 8.36908 0 7.8174 0 6.71404V3.15217C0 2.04881 0 1.49713 0.214729 1.0757C0.40361 0.704998 0.704998 0.40361 1.0757 0.214729C1.49713 0 2.04881 0 3.15217 0H7.63787C8.74123 0 9.29291 0 9.71434 0.214729C10.085 0.40361 10.3864 0.704998 10.5753 1.0757C10.79 1.49713 10.79 2.04881 10.79 3.15217V7.72365Z" fill="#FF3C00"></path> <path d="M119.335 27.5684C118.159 27.5684 117.151 27.3764 116.311 26.9923C115.495 26.5843 114.871 25.9602 114.438 25.12C114.006 24.2799 113.79 23.2237 113.79 21.9515V12.9861H110.01V9.74558H113.79V3.55259H117.859V9.74558H122V12.9861H117.859V21.3754C117.859 21.9995 117.955 22.5276 118.147 22.9597C118.339 23.3678 118.615 23.6798 118.975 23.8958C119.359 24.1119 119.851 24.2199 120.451 24.2199C120.884 24.2199 121.328 24.1839 121.784 24.1119V27.2804C121.52 27.3524 121.16 27.4124 120.703 27.4604C120.247 27.5324 119.791 27.5684 119.335 27.5684Z" fill="#ffffff"></path><path d="M103.947 9.74572H108.016V27.2445H103.947V9.74572ZM103.839 3.55183H108.16V7.90853H103.839V3.55183Z" fill="#ffffff"></path><path d="M96.2725 2.04037H100.341V27.2444H96.2725V2.04037Z" fill="#ffffff"></path> <path d="M75.8896 9.74563H79.9583V10.6458C79.9583 11.1018 79.9223 11.6299 79.8503 12.23C80.4024 11.2699 81.1705 10.5258 82.1546 9.99767C83.1388 9.44558 84.291 9.16953 85.6112 9.16953C87.1715 9.16953 88.5397 9.5656 89.7159 10.3577C90.892 11.1499 91.7922 12.266 92.4163 13.7063C93.0644 15.1225 93.3884 16.7427 93.3884 18.567C93.3884 20.4153 93.0404 22.0476 92.3443 23.4638C91.6722 24.856 90.724 25.9362 89.4998 26.7043C88.2996 27.4725 86.9434 27.8565 85.4312 27.8565C84.087 27.8565 82.9708 27.5925 82.0826 27.0644C81.1945 26.5363 80.4504 25.7922 79.8503 24.832C79.9223 25.4321 79.9583 25.9722 79.9583 26.4523V34.6256H75.8896V9.74563ZM84.531 24.688C85.4672 24.688 86.2833 24.424 86.9794 23.8959C87.6995 23.3678 88.2516 22.6477 88.6357 21.7355C89.0197 20.7994 89.2118 19.7192 89.2118 18.495C89.2118 17.2948 89.0197 16.2387 88.6357 15.3265C88.2516 14.4144 87.6995 13.6943 86.9794 13.1662C86.2833 12.6381 85.4672 12.374 84.531 12.374C83.6189 12.374 82.8028 12.6261 82.0826 13.1302C81.3625 13.6342 80.7984 14.3424 80.3904 15.2545C79.9823 16.1667 79.7783 17.2468 79.7783 18.495C79.7783 19.7192 79.9823 20.7994 80.3904 21.7355C80.7984 22.6477 81.3505 23.3678 82.0466 23.8959C82.7667 24.424 83.5949 24.688 84.531 24.688Z" fill="#ffffff"></path> <path d="M64.9445 27.8565C63.2162 27.8565 61.6799 27.4965 60.3357 26.7764C59.0155 26.0322 57.9833 24.9521 57.2392 23.5358C56.4951 22.1196 56.123 20.4273 56.123 18.459C56.123 16.6347 56.4951 15.0265 57.2392 13.6342C57.9833 12.218 59.0155 11.1258 60.3357 10.3577C61.6559 9.5656 63.1442 9.16953 64.8004 9.16953C66.5527 9.16953 68.053 9.55359 69.3012 10.3217C70.5494 11.0898 71.4975 12.182 72.1456 13.5982C72.8177 15.0145 73.1538 16.6707 73.1538 18.567V19.4312H60.2637C60.2877 20.4393 60.4917 21.3395 60.8758 22.1316C61.2839 22.9237 61.836 23.5478 62.5321 24.0039C63.2522 24.46 64.0683 24.688 64.9805 24.688C66.0126 24.688 66.8888 24.424 67.6089 23.8959C68.329 23.3678 68.7731 22.6117 68.9411 21.6275H73.0458C72.9257 22.7797 72.5177 23.8359 71.8216 24.796C71.1495 25.7322 70.2253 26.4763 69.0491 27.0284C67.8729 27.5805 66.5047 27.8565 64.9445 27.8565ZM68.9771 16.5147C68.9291 15.2185 68.533 14.1863 67.7889 13.4182C67.0448 12.6261 66.0366 12.23 64.7644 12.23C63.5402 12.23 62.5081 12.6381 61.6679 13.4542C60.8518 14.2463 60.3837 15.2665 60.2637 16.5147H68.9771Z" fill="#ffffff"></path> <path d="M35.0693 2.04038H46.1231C48.5715 2.04038 50.5278 2.61648 51.992 3.76866C53.4563 4.89684 54.1884 6.5291 54.1884 8.66545C54.1884 10.2497 53.7203 11.5699 52.7842 12.6261C51.848 13.6822 50.7198 14.4144 49.3996 14.8224C50.7919 15.0385 51.86 15.6506 52.6041 16.6587C53.3723 17.6669 53.7563 18.9871 53.7563 20.6194V27.2444H49.3996V21.1955C49.3996 19.5632 49.0636 18.423 48.3915 17.7749C47.7434 17.1268 46.5912 16.8027 44.9349 16.8027H39.426V27.2444H35.0693V2.04038ZM45.259 13.0942C46.2191 13.0942 47.0353 12.9621 47.7074 12.6981C48.3795 12.41 48.8836 11.99 49.2196 11.4379C49.5557 10.8858 49.7237 10.2137 49.7237 9.42157C49.7237 8.19737 49.3396 7.27322 48.5715 6.64912C47.8034 6.02502 46.6992 5.71297 45.259 5.71297H39.426V13.0942H45.259Z" fill="#ffffff"></path></svg>