<?xml version="1.0" encoding="UTF-8"?>
<svg width="1900px" height="567px" viewBox="0 0 1900 567" version="1.1" xmlns="http://www.w3.org/2000/svg" xmlns:xlink="http://www.w3.org/1999/xlink">
    <title>Wingify-Logo-color</title>
    <g id="Page-1" stroke="none" stroke-width="1" fill="none" fill-rule="evenodd">
        <g id="Wingify-Logo-Color" transform="translate(-10.000000, -257.000000)" fill="#D82E2B">
            <g id="Wingify-Logo-color" transform="translate(10.000000, 257.000000)">
                <path d="M0.21532185,31.4760456 L0,26.7330798 C2.79918404,23.0680608 10.7660925,21.343346 23.9007253,21.343346 L51.8925657,21.5589354 L68.2570263,21.7745247 L75.5779692,21.5589354 C101.847235,21.5589354 117.781052,21.9901141 123.37942,22.8524715 C123.594742,25.2239544 123.594742,27.1642586 123.594742,28.2422053 C123.594742,29.9669202 123.37942,32.7695817 122.948776,36.2190114 L94.0956482,37.5125475 C92.5883953,37.7281369 90.8658205,38.1593156 88.2819583,39.021673 C87.4206709,40.9619772 86.9900272,42.4711027 86.9900272,43.5490494 C86.9900272,44.8425856 87.6359927,46.7828897 88.712602,49.369962 C90.2198549,52.8193916 91.9424297,56.4844106 93.2343608,60.365019 L112.398005,113.831179 L157.830916,227.877947 C162.99864,241.891255 166.659112,250.730418 168.381686,254.826616 C173.980054,267.546388 181.085675,285.440304 189.913871,308.292776 C192.928377,316.269582 200.24932,333.301141 211.661378,359.603042 C212.307344,361.327757 213.383953,363.914829 215.32185,367.579848 C224.365367,352.919772 237.715322,327.049049 255.371714,290.18327 C269.152312,261.941065 277.765186,242.322433 281.210335,231.758555 L278.841795,225.722053 L226.733908,107.363498 C219.843608,92.4878327 214.460562,80.8460076 210.800091,72.2224335 C202.833182,53.8973384 197.019492,43.5490494 193.359021,40.9619772 C189.698549,38.3749049 178.932457,36.4346008 161.060743,35.5722433 L154.601088,34.0631179 C152.878513,32.338403 152.232548,30.1825095 152.232548,27.8110266 C152.663191,26.0863118 153.524479,24.5771863 155.031732,23.7148289 C161.491387,23.4992395 166.013146,23.4992395 168.597008,23.4992395 L187.760653,24.1460076 L197.450136,23.9304183 L214.029918,23.9304183 L228.887126,23.7148289 L244.605621,23.7148289 L273.028105,20.9121673 C274.75068,20.9121673 277.549864,20.9121673 281.210335,21.1277567 L285.947416,20.9121673 C288.7466,20.9121673 290.899819,21.5589354 292.407072,22.8524715 C293.914325,24.1460076 294.56029,25.6551331 294.56029,27.1642586 C294.56029,28.673384 294.129646,30.1825095 293.268359,31.9072243 C290.038531,33.2007605 284.224841,34.0631179 276.042611,34.9254753 C264.199909,36.4346008 257.30961,37.7281369 255.371714,38.8060837 C253.433817,40.0996198 252.572529,41.6087452 252.572529,43.5490494 C252.572529,47.4296578 260.324116,67.695057 276.042611,104.560837 L307.048957,174.627376 C316.523119,156.086692 329.44243,126.76654 345.591568,86.6669202 C352.481868,70.0665399 355.927017,57.7779468 355.927017,50.01673 C355.927017,45.704943 354.204442,42.039924 350.759293,38.5904943 C348.175431,36.2190114 342.361741,34.4942966 333.102901,33.8475285 L326.643246,32.9851711 L321.260199,30.6136882 L321.044878,28.2422053 C321.044878,26.9486692 321.475521,25.2239544 322.552131,23.0680608 C324.490027,21.5589354 326.427924,20.4809886 327.935177,20.2653992 C330.949683,19.8342205 344.945603,20.2653992 369.922937,21.7745247 L390.593835,21.7745247 L403.297824,21.9901141 L424.399365,21.7745247 C425.906618,21.9901141 428.490481,22.4212928 431.720308,23.2836502 C433.227561,25.008365 434.088849,26.5174905 434.088849,27.8110266 C434.088849,29.9669202 433.227561,31.9072243 431.504986,33.2007605 C429.782412,34.7098859 425.906618,35.7878327 419.877607,36.8657795 C404.589755,39.4528517 392.962375,43.5490494 385.426111,48.9387833 C380.473708,52.8193916 375.736627,58.2091255 371.860834,65.3235741 L349.898005,114.477947 C344.730281,129.353612 340.423844,140.564259 336.978694,148.109886 C335.471442,152.852852 332.887579,158.889354 329.227108,166.65057 L316.953762,195.539544 C319.106981,200.713688 322.982774,209.337262 328.150499,220.979087 L359.372167,293.41711 C360.87942,296.650951 364.970535,305.705703 371.860834,320.365779 C378.751133,335.025856 384.564823,348.823574 389.301904,361.327757 L393.823663,346.667681 L394.469628,345.158555 L412.987307,296.86654 C419.446963,282.206464 425.906618,266.468441 432.366274,250.08365 L455.621034,191.227757 L490.718495,91.1942966 C494.378966,79.7680608 497.17815,68.5574144 499.546691,57.7779468 L500.407978,53.034981 C501.053944,50.8790875 501.269266,49.1543726 501.269266,48.2920152 C501.269266,45.4893536 499.762013,42.9022814 496.962829,40.5307985 C494.163645,38.1593156 484.043518,34.9254753 467.033092,31.0448669 C465.310517,30.3980989 463.803264,29.5357414 462.296011,28.2422053 C461.650045,25.8707224 461.434723,23.9304183 461.434723,22.4212928 L461.650045,20.2653992 C470.047597,19.8342205 475.430644,19.6186312 477.799184,19.6186312 L501.053944,20.2653992 L527.323209,20.0498099 L549.932004,20.0498099 L558.975521,20.6965779 L559.190843,23.7148289 C559.190843,25.2239544 558.975521,27.1642586 558.544878,30.1825095 C543.902992,35.7878327 534.859474,39.8840304 531.414325,42.2555133 C527.969175,44.6269962 525.169991,47.2140684 523.232094,50.2323194 C521.294198,53.034981 517.633726,60.7961977 512.466002,73.3003802 C511.820036,74.5939163 505.575703,92.7034221 493.517679,127.844487 C490.933817,133.018631 488.134633,140.13308 485.335449,148.756654 C484.474161,151.128137 482.751587,155.439924 480.167724,161.692015 L475.430644,173.765019 L472.200816,182.604183 C458.850861,219.469962 444.208976,257.844867 428.490481,298.160076 L395.761559,389.138783 L382.842248,423.63308 C379.827743,424.064259 377.459202,424.279848 375.951949,424.279848 C374.660018,424.279848 372.722121,424.279848 370.138259,424.064259 C367.554397,416.518631 361.740707,402.505323 352.697189,381.593156 C329.44243,328.558175 308.771532,284.577947 290.253853,249.652471 L286.593382,255.688973 C276.257933,275.307605 263.984587,301.178327 249.558024,333.51673 L225.226655,381.593156 C215.537171,402.074144 207.785585,416.087452 201.756573,424.064259 L187.975975,424.279848 L139.097915,304.196578 L98.4020852,209.121673 L62.8739801,118.789734 C60.5054397,112.968821 58.3522212,107.363498 56.6296464,102.189354 C55.1223935,98.3087452 53.8304624,94.4281369 52.7538531,90.3319392 C50.8159565,84.0798479 45.0022665,69.8509506 35.743427,47.6452471 C32.0829556,41.8243346 26.2692656,37.9437262 18.3023572,36.4346008 C10.1201269,34.7098859 4.09111514,33.2007605 0.21532185,31.4760456 Z" id="Shape"></path>
                <path d="M572.540798,192.305703 L572.75612,183.46654 C585.890752,179.585932 592.996374,177.430038 593.857661,176.78327 C601.178604,173.54943 608.714869,168.590875 616.681777,161.907605 C624.648685,155.224335 631.323663,147.678707 636.922031,139.486312 C639.290571,139.055133 641.228468,138.839544 642.735721,138.839544 L646.396192,139.055133 C647.25748,148.756654 647.688123,155.871103 647.688123,160.18289 C647.688123,161.260837 647.472801,165.788213 647.042158,173.765019 L647.042158,189.718631 L647.25748,277.032319 L646.396192,369.520152 C646.18087,377.065779 647.472801,382.239924 650.056664,385.042586 C652.640526,388.060837 660.392112,391.294677 673.311423,394.959696 C681.278332,397.115589 687.522665,399.055894 691.398459,400.780608 C692.044424,402.289734 692.259746,403.367681 692.259746,404.445627 C692.259746,405.739163 691.829102,407.248289 690.752493,408.973004 C682.785585,408.757414 672.88078,408.326236 660.392112,407.463878 C643.597008,405.954753 632.615594,405.307985 627.017226,405.307985 C624.433364,405.307985 608.284225,405.739163 578.56981,406.81711 C572.540798,407.0327 566.727108,407.463878 560.913418,408.326236 C559.836809,408.326236 558.329556,408.110646 556.176337,407.463878 C555.099728,405.954753 554.669084,404.876806 554.669084,403.798859 C554.669084,400.996198 556.606981,398.840304 560.482774,397.115589 C561.344062,396.684411 571.67951,394.312928 591.273799,390.21673 C597.733454,388.923194 602.039891,386.98289 603.977788,384.180228 C607.422937,379.868441 609.145512,373.185171 609.145512,363.914829 C609.576156,348.392395 609.791478,305.705703 609.791478,236.070342 C609.791478,222.057034 609.145512,213.43346 608.068903,209.98403 C606.992294,207.612548 604.408432,204.809886 600.101995,201.576046 C596.010879,198.557795 586.75204,195.539544 572.540798,192.305703 Z M597.948776,34.9254753 C597.948776,28.2422053 600.532638,22.4212928 605.700363,17.678327 C610.868087,12.9353612 617.112421,10.348289 624.218042,10.348289 C631.754306,10.348289 638.213962,13.1509506 643.81233,18.5406844 C649.410698,23.9304183 652.209882,29.9669202 652.209882,36.2190114 C652.209882,42.4711027 649.410698,48.2920152 643.81233,53.8973384 C638.213962,59.5026616 631.538985,62.3053232 624.218042,62.3053232 C616.681777,62.3053232 610.437443,59.718251 605.485041,54.7596958 C600.532638,49.5855513 597.948776,42.9022814 597.948776,34.9254753 Z" id="Shape"></path>
                <path d="M708.408885,397.546768 C713.361287,396.037643 719.390299,394.959696 726.065277,393.881749 C738.769266,392.157034 746.30553,390.001141 748.889393,387.629658 C751.473255,385.258175 752.765186,379.652852 752.765186,371.029278 L753.411151,360.24981 C753.626473,356.153612 753.626473,351.195057 753.626473,344.942966 L752.980508,252.239544 C752.980508,239.735361 751.257933,231.758555 748.243427,228.093536 C742.860381,222.488213 732.740254,218.607605 717.883046,216.236122 L717.883046,204.809886 C732.524932,200.713688 743.93699,195.539544 751.903898,189.071863 C763.315956,180.01711 773.00544,167.512928 780.972348,151.990494 L791.307797,152.206084 C791.953762,161.692015 792.169084,168.590875 792.169084,172.687072 L792.169084,192.736882 L792.384406,198.126616 C794.752947,196.401901 797.552131,194.461597 800.781958,192.090114 C812.839982,183.035361 825.328649,175.489734 838.032638,169.668821 C850.736627,163.847909 862.148685,159.9673 872.05349,157.595817 C878.297824,155.871103 885.403445,155.224335 893.155032,155.224335 C909.734814,155.224335 923.946056,159.751711 935.788758,168.590875 C947.63146,177.430038 955.383046,187.993916 959.043518,200.06692 C962.488667,212.139924 964.426564,236.070342 964.426564,271.858175 L964.426564,317.778707 C964.426564,319.072243 964.211242,322.952852 963.99592,329.851711 C963.780598,336.75057 963.565277,344.727376 963.565277,353.56654 C963.565277,367.795437 964.211242,376.634601 965.287851,380.515209 C966.364461,383.102281 968.948323,385.689354 973.25476,388.492015 C992.633726,391.079087 1003.83046,394.312928 1007.27561,397.977947 L1007.27561,400.34943 C1007.27561,402.289734 1006.62965,404.876806 1005.55304,407.895057 L999.739347,407.895057 L959.689483,407.248289 L920.285585,408.110646 C905.643699,408.541825 892.293744,408.326236 880.020399,407.895057 L878.297824,401.427376 C878.297824,400.13384 878.94379,398.624715 880.451043,396.684411 C885.834089,394.312928 893.585675,392.588213 903.490481,391.725856 C909.30417,391.294677 913.395286,390.647909 915.548504,390.001141 C917.701723,389.138783 920.500907,387.629658 923.730734,385.042586 C926.099275,380.08403 927.391206,376.203422 927.391206,372.969582 C927.391206,371.460456 927.175884,368.657795 926.74524,364.561597 C926.099275,355.291255 925.668631,332.007605 925.453309,295.141825 L925.453309,279.403802 L926.099275,255.042205 C926.099275,228.955894 920.93155,210.846388 910.38078,200.929278 C899.830009,191.012167 885.834089,186.053612 868.393019,186.053612 C854.827743,186.053612 841.69311,189.071863 828.773799,194.892776 C815.854488,200.929278 803.36582,209.768441 791.307797,221.625856 C790.877153,231.327376 790.661831,239.519772 790.661831,246.418631 L791.523119,313.46692 C791.523119,348.392395 791.953762,369.951331 793.030372,377.712548 C793.461015,380.946388 794.106981,383.102281 795.18359,384.395817 C796.690843,386.120532 799.920671,387.414068 804.873073,388.276426 C809.610154,389.354373 815.423844,390.647909 821.668178,392.588213 C827.912511,394.528517 832.218948,395.606464 834.156845,395.822053 C838.24796,396.9 840.831822,398.840304 842.339075,401.858555 L842.123753,407.895057 L810.25612,407.895057 L744.798277,407.0327 C729.725748,407.248289 720.036265,407.248289 715.94515,407.248289 L708.408885,407.248289 L707.762919,403.367681 C707.547597,402.074144 707.978241,400.13384 708.408885,397.546768 Z" id="Shape"></path>
                <path d="M1095.12693,427.513688 C1092.75839,426.220152 1085.0068,422.986312 1071.87217,417.596578 C1056.58432,407.679468 1046.89483,400.34943 1042.80372,395.390875 C1038.7126,390.647909 1036.77471,385.258175 1036.77471,379.221673 C1036.77471,374.047529 1038.28196,369.735741 1041.29646,366.501901 C1045.81822,361.758935 1054.4311,357.447148 1067.56573,353.135361 C1080.70036,348.823574 1091.46646,344.727376 1099.86401,340.631179 C1097.28015,338.906464 1093.18903,336.103802 1087.37534,332.654373 C1057.23028,314.113688 1042.15775,288.242966 1042.15775,255.257795 C1042.15775,228.093536 1051.63191,205.241065 1070.79556,186.484791 C1089.9592,167.728517 1114.29057,158.458175 1144.22031,158.458175 C1157.78558,158.458175 1170.05893,160.398479 1181.47099,164.279087 C1187.93064,166.219392 1197.62013,171.393536 1210.32412,179.370342 C1218.29102,184.328897 1223.24343,187.347148 1224.53536,187.778327 C1227.76519,188.856274 1231.42566,189.287452 1235.51677,189.287452 C1238.96192,189.287452 1247.35947,188.425095 1260.49411,186.70038 C1273.62874,184.975665 1281.59565,184.113308 1283.96419,184.113308 C1288.70127,184.113308 1292.36174,184.975665 1295.37625,186.91597 C1297.74479,191.012167 1299.03672,197.695437 1299.03672,207.181369 C1299.03672,210.415209 1298.17543,212.786692 1296.45286,214.511407 C1294.73028,216.236122 1292.36174,216.88289 1289.13191,216.88289 C1283.53354,216.88289 1274.05938,215.158175 1261.14007,211.493156 C1248.22076,208.043726 1240.25385,206.103422 1237.45467,206.103422 C1236.37806,206.103422 1234.44016,206.319011 1231.64098,206.75019 C1240.25385,224.212928 1244.56029,239.950951 1244.56029,254.395437 C1244.56029,268.839924 1240.03853,283.5 1230.99501,299.022433 C1221.9515,314.329278 1209.46283,326.186692 1193.52901,334.163498 C1177.59519,342.355894 1161.44606,346.236502 1145.0816,346.236502 C1143.78966,346.236502 1140.34451,346.236502 1134.74615,346.020913 C1116.22847,346.020913 1099.21804,350.763878 1083.49955,360.034221 C1075.96328,364.777186 1072.30281,369.088973 1072.30281,372.969582 C1072.30281,377.281369 1075.96328,381.377567 1083.28422,385.473764 C1102.44787,395.822053 1138.83726,401.642966 1192.23708,403.367681 C1215.49184,404.230038 1233.57888,407.463878 1246.49819,413.284791 C1259.4175,419.105703 1269.10698,427.729278 1275.78196,439.155513 C1282.24161,450.581749 1285.68676,462.439163 1285.68676,474.512167 C1285.68676,490.896958 1280.0884,505.988213 1269.10698,520.001521 C1257.91024,534.014829 1241.11514,545.225475 1218.50635,554.064639 C1195.89755,562.688213 1170.05893,567 1140.77516,567 C1108.47688,567 1083.49955,563.119392 1066.05848,555.142586 C1048.61741,547.165779 1036.12874,538.757795 1028.59248,529.271863 C1021.27153,520.001521 1017.61106,510.731179 1017.61106,501.676426 C1017.61106,493.69962 1021.70218,483.998099 1029.66908,472.140684 C1037.63599,460.28327 1054.4311,447.994677 1079.83908,435.059316 C1087.16002,431.825475 1092.32774,429.022814 1095.12693,427.513688 Z M1073.1641,535.092776 C1091.46646,549.321673 1114.72121,556.220532 1142.71306,556.220532 C1162.73799,556.220532 1182.5476,552.986692 1202.57253,546.734601 C1222.38214,540.26692 1237.02403,531.212167 1246.06754,519.354753 C1255.32638,507.497338 1259.84814,496.286692 1259.84814,485.938403 C1259.84814,479.470722 1258.12557,473.003042 1255.11106,466.750951 C1251.88123,460.28327 1247.5748,455.109125 1241.97643,451.012928 C1236.37806,446.91673 1229.05712,443.68289 1220.0136,441.095817 C1213.55394,439.371103 1204.2951,437.861977 1192.4524,437.215209 C1158.43155,434.628137 1137.76065,433.334601 1130.00907,433.334601 C1108.47688,433.334601 1089.09791,440.664639 1072.08749,455.109125 C1058.95286,466.319772 1052.4932,479.901901 1052.4932,495.639924 C1052.4932,510.3 1059.3835,523.450951 1073.1641,535.092776 Z M1083.0689,254.395437 C1083.0689,272.504943 1085.86809,287.811787 1091.25113,300.10038 C1096.63418,312.388973 1104.17044,321.443726 1113.64461,327.480228 C1123.11877,333.51673 1132.80825,336.319392 1142.49773,336.319392 C1160.15413,336.319392 1174.58069,329.636122 1186.20807,316.053992 C1197.83545,302.687452 1203.64914,282.206464 1203.64914,254.611027 C1203.64914,227.015589 1197.62013,205.887833 1185.5621,191.443346 C1173.50408,176.998859 1158.86219,169.668821 1141.63645,169.668821 C1122.4728,169.668821 1107.83092,176.567681 1098.14143,190.365399 C1088.02131,204.163118 1083.0689,225.506464 1083.0689,254.395437 Z" id="Shape"></path>
                <path d="M1308.7262,192.305703 L1308.94152,183.46654 C1322.07616,179.585932 1329.18178,177.430038 1330.04306,176.78327 C1337.36401,173.54943 1344.90027,168.590875 1352.86718,161.907605 C1360.83409,155.224335 1367.50907,147.678707 1373.10743,139.486312 C1375.47597,139.055133 1377.41387,138.839544 1378.92112,138.839544 L1382.5816,139.055133 C1383.44288,148.756654 1383.87353,155.871103 1383.87353,160.18289 C1383.87353,161.260837 1383.6582,165.788213 1383.22756,173.765019 L1383.22756,189.718631 L1383.44288,277.032319 L1382.5816,369.520152 C1382.36627,377.065779 1383.6582,382.239924 1386.24207,385.042586 C1388.82593,388.060837 1396.57752,391.294677 1409.49683,394.959696 C1417.46374,397.115589 1423.70807,399.055894 1427.58386,400.780608 C1428.22983,402.289734 1428.44515,403.367681 1428.44515,404.445627 C1428.44515,405.739163 1428.01451,407.248289 1426.9379,408.973004 C1418.97099,408.757414 1409.06618,408.326236 1396.57752,407.463878 C1379.78241,405.954753 1368.801,405.307985 1363.20263,405.307985 C1360.61877,405.307985 1344.46963,405.739163 1314.75521,406.81711 C1308.7262,407.0327 1302.91251,407.463878 1297.09882,408.326236 C1296.02221,408.326236 1294.51496,408.110646 1292.36174,407.463878 C1291.28513,405.954753 1290.85449,404.876806 1290.85449,403.798859 C1290.85449,400.996198 1292.79238,398.840304 1296.66818,397.115589 C1297.52947,396.684411 1307.86491,394.312928 1327.4592,390.21673 C1333.91886,388.923194 1338.22529,386.98289 1340.16319,384.180228 C1343.60834,379.868441 1345.33092,373.185171 1345.33092,363.914829 C1345.76156,348.392395 1345.97688,305.705703 1345.97688,236.070342 C1345.97688,222.057034 1345.33092,213.43346 1344.25431,209.98403 C1343.1777,207.612548 1340.59383,204.809886 1336.2874,201.576046 C1331.98096,198.557795 1322.72212,195.539544 1308.7262,192.305703 Z M1334.13418,34.9254753 C1334.13418,28.2422053 1336.71804,22.4212928 1341.88577,17.678327 C1347.05349,12.9353612 1353.29782,10.348289 1360.40345,10.348289 C1367.93971,10.348289 1374.39937,13.1509506 1379.99773,18.5406844 C1385.5961,23.9304183 1388.39529,29.9669202 1388.39529,36.2190114 C1388.39529,42.4711027 1385.5961,48.2920152 1379.99773,53.8973384 C1374.39937,59.5026616 1367.72439,62.3053232 1360.40345,62.3053232 C1352.86718,62.3053232 1346.62285,59.718251 1341.67044,54.7596958 C1336.71804,49.5855513 1334.13418,42.9022814 1334.13418,34.9254753 Z" id="Shape"></path>
                <path d="M1544.50363,171.177947 C1594.67362,172.471483 1621.58885,172.902662 1624.81868,172.902662 C1625.24932,177.430038 1625.46464,180.663878 1625.46464,182.819772 C1625.46464,185.406844 1625.24932,189.287452 1624.60335,194.677186 C1619.65095,195.539544 1614.48323,195.970722 1609.10018,195.970722 L1597.68812,195.970722 C1572.71079,195.970722 1555.26972,196.83308 1545.58024,198.773384 C1545.14959,203.51635 1544.93427,206.965779 1544.93427,209.337262 C1544.93427,210.415209 1544.93427,211.924335 1545.14959,213.864639 C1546.2262,245.556274 1546.65684,264.743726 1546.65684,271.426996 L1546.01088,349.254753 C1546.01088,360.680989 1547.94878,370.38251 1551.82457,378.143726 C1553.97779,382.671103 1558.28422,386.120532 1564.31324,388.707605 C1568.18903,390.432319 1577.44787,392.372624 1592.08976,394.097338 C1603.28649,395.822053 1610.60743,396.9 1614.48323,397.331179 C1614.48323,401.642966 1614.26791,404.876806 1613.62194,407.0327 L1609.3155,407.248289 C1599.62602,406.601521 1586.92203,406.170342 1571.41886,405.739163 L1549.02539,404.876806 L1472.80145,407.248289 L1462.89665,407.248289 L1462.68132,397.762357 C1465.69583,397.115589 1467.84905,396.684411 1469.3563,396.253232 C1486.79737,393.019392 1497.99411,389.354373 1502.94651,385.258175 C1504.88441,383.749049 1506.39166,380.730798 1507.25295,376.419011 C1507.68359,374.047529 1507.89891,362.621293 1507.89891,342.355894 C1507.89891,284.793536 1507.46827,238.873004 1506.39166,204.378707 C1501.22393,202.869582 1493.0417,201.791635 1482.27561,201.360456 C1478.1845,201.360456 1471.94016,200.929278 1463.11197,200.06692 L1462.466,196.61749 C1462.466,194.246008 1463.54261,192.090114 1465.48051,190.365399 C1466.3418,189.503042 1474.73935,185.406844 1490.88849,177.645627 C1497.13282,174.842966 1501.65458,171.393536 1504.23844,167.081749 C1505.74569,164.925856 1506.39166,160.18289 1506.60698,153.068441 C1506.8223,149.834601 1507.46827,144.229278 1508.32956,136.252471 C1510.6981,115.340304 1512.63599,102.620532 1514.14325,97.6619772 C1517.80372,84.0798479 1523.83273,70.4977186 1532.4456,57.1311787 C1541.05848,43.7646388 1551.39393,31.9072243 1563.45195,21.7745247 C1572.28015,14.4444867 1582.40027,9.05475285 1593.59701,5.38973384 C1604.79374,1.72471483 1617.49773,0 1631.9243,0 C1651.08794,0 1665.08386,3.01825095 1673.91206,9.27034221 C1679.94107,13.5821293 1682.95558,18.9718631 1682.95558,25.4395437 C1682.95558,31.0448669 1680.80236,35.7878327 1676.49592,39.8840304 C1672.18948,43.9802281 1667.02176,45.9205323 1660.77743,45.9205323 C1653.02584,45.9205323 1644.84361,43.9802281 1636.01541,40.0996198 C1619.22031,33.4163498 1609.74615,29.7513308 1607.59293,29.1045627 C1603.71714,28.026616 1599.84134,27.5954373 1595.75023,27.5954373 C1584.55349,27.5954373 1574.43336,31.0448669 1565.38985,38.1593156 C1556.13101,45.2737643 1550.31732,53.8973384 1547.94878,64.2456274 C1545.58024,74.5939163 1544.2883,97.8775665 1544.2883,133.880989 C1544.2883,148.756654 1544.2883,160.614068 1544.50363,171.177947 Z" id="Shape"></path>
                <path d="M1636.8767,168.590875 C1641.39846,168.159696 1645.05893,167.944106 1648.07344,167.944106 L1662.71532,167.944106 L1682.30961,167.297338 L1708.14823,168.159696 L1729.03445,167.512928 C1740.23119,167.512928 1750.13599,168.159696 1758.96419,169.668821 C1759.82548,171.609125 1760.25612,173.33384 1760.25612,174.411787 L1760.0408,176.78327 C1755.73436,178.723574 1749.27471,180.2327 1740.44651,181.095057 C1727.95784,182.173004 1718.91432,184.328897 1713.53128,187.778327 L1712.88531,191.012167 C1712.88531,192.952471 1713.7466,195.970722 1715.25385,200.06692 C1716.33046,202.438403 1717.62239,206.103422 1719.12965,211.061977 C1723.65141,226.153232 1733.12557,255.042205 1747.98277,297.944487 C1758.74887,328.989354 1768.65367,355.506844 1777.69719,377.928137 C1783.29556,365.639544 1789.53989,350.3327 1796.86083,331.576426 L1822.26881,259.569582 C1828.0825,243.831559 1832.60426,228.093536 1835.61877,212.355513 C1836.9107,206.103422 1837.34134,201.144867 1837.34134,197.479848 C1837.34134,194.461597 1836.04941,191.658935 1833.46555,189.071863 C1830.88169,186.484791 1825.49864,184.328897 1817.74705,182.388593 C1803.32049,178.723574 1795.5689,176.567681 1794.49229,175.489734 C1793.41568,174.411787 1792.5544,172.687072 1792.33908,169.668821 C1793.63101,168.590875 1794.92294,167.944106 1796.64551,167.297338 L1815.37851,167.297338 L1835.61877,167.512928 L1865.97915,167.297338 L1885.35811,167.512928 L1890.09519,167.297338 C1891.60245,167.297338 1893.75567,167.512928 1896.98549,167.944106 C1898.92339,169.022053 1900,170.531179 1900,172.687072 C1900,174.627376 1899.13871,176.567681 1897.20082,178.076806 L1891.1718,178.939163 C1879.54442,180.663878 1870.50091,183.682129 1864.25657,187.993916 C1860.81142,190.365399 1857.79692,195.539544 1855.42838,203.085171 C1854.56709,205.887833 1853.27516,209.552852 1851.55258,214.080228 C1850.47597,216.451711 1849.18404,220.547909 1847.24615,226.153232 C1845.30825,231.758555 1842.93971,238.441825 1839.9252,246.203042 L1836.26473,254.611027 L1836.04941,256.120152 L1784.58749,391.725856 L1747.12149,493.915209 C1744.75295,499.089354 1741.95376,505.341445 1738.72393,512.671483 C1730.97235,527.11597 1726.45059,534.877186 1725.15866,536.386312 C1719.12965,543.931939 1713.7466,549.106084 1709.44016,552.124335 L1693.93699,558.807605 C1690.92248,559.669962 1687.69266,560.101141 1684.24751,560.101141 C1675.20399,560.101141 1668.52901,558.160837 1664.22257,554.064639 C1659.91614,550.18403 1657.76292,544.578707 1657.76292,537.679848 C1657.76292,531.212167 1660.99275,525.175665 1667.23708,520.001521 C1669.17498,519.354753 1671.3282,518.492395 1673.26609,517.630038 L1677.14189,516.767681 C1695.22892,520.001521 1706.42566,521.510646 1710.73209,521.510646 C1715.03853,519.354753 1718.05304,516.767681 1720.20626,513.74943 C1730.11106,499.089354 1738.72393,482.704563 1745.82956,464.595057 C1752.93518,446.485551 1756.59565,434.196958 1756.59565,427.944867 C1756.59565,421.046008 1754.01179,411.128897 1748.62874,397.977947 L1715.03853,308.939544 C1710.30145,297.513308 1696.52085,259.785171 1673.48141,196.186312 C1671.97416,192.090114 1670.25159,189.071863 1668.09837,187.131559 L1647.42747,179.585932 L1640.96782,178.292395 C1637.52267,176.78327 1635.80009,174.842966 1635.80009,172.255894 L1636.8767,168.590875 Z" id="Shape"></path>
            </g>
        </g>
    </g>
</svg>