<svg width="503" height="465" viewBox="0 0 503 465" fill="none" xmlns="http://www.w3.org/2000/svg"> <path d="M0 86.1777C0 38.5831 38.6059 0 86.2287 0H416.771C464.394 0 503 38.5831 503 86.1777V373.436C503 421.031 464.394 459.614 416.771 459.614H86.2287C38.6058 459.614 0 421.031 0 373.436V86.1777Z" fill="#0A233E"/> <g clip-path="url(#paint0_angular_2050_57169_clip_path)" data-figma-skip-parse="true"><g transform="matrix(-0.0943125 -0.154386 0.157187 -0.0926316 251.5 229.358)"><foreignObject x="-1372.28" y="-1372.28" width="2744.55" height="2744.55"><div xmlns="http://www.w3.org/1999/xhtml" style="background:conic-gradient(from 90deg,rgba(245, 150, 29, 1) 0deg,rgba(255, 202, 5, 1) 55.3846deg,rgba(108, 193, 148, 1) 117.692deg,rgba(0, 150, 202, 1) 178.269deg,rgba(149, 32, 104, 1) 242.308deg,rgba(239, 102, 34, 1) 306.346deg,rgba(245, 150, 29, 1) 356.538deg,rgba(245, 150, 29, 1) 360deg);height:100%;width:100%;opacity:1"></div></foreignObject></g></g><path d="M251.5 408.446C352.202 408.446 433.838 328.266 433.838 229.358C433.838 130.451 352.202 50.2705 251.5 50.2705C150.798 50.2705 69.1626 130.451 69.1626 229.358C69.1626 328.266 150.798 408.446 251.5 408.446Z" data-figma-gradient-fill="{&#34;type&#34;:&#34;GRADIENT_ANGULAR&#34;,&#34;stops&#34;:[{&#34;color&#34;:{&#34;r&#34;:0.96078431606292725,&#34;g&#34;:0.58823531866073608,&#34;b&#34;:0.11372549086809158,&#34;a&#34;:1.0},&#34;position&#34;:0.0},{&#34;color&#34;:{&#34;r&#34;:1.0,&#34;g&#34;:0.79215687513351440,&#34;b&#34;:0.019607843831181526,&#34;a&#34;:1.0},&#34;position&#34;:0.15384615957736969},{&#34;color&#34;:{&#34;r&#34;:0.42352941632270813,&#34;g&#34;:0.75686275959014893,&#34;b&#34;:0.58039218187332153,&#34;a&#34;:1.0},&#34;position&#34;:0.32692307233810425},{&#34;color&#34;:{&#34;r&#34;:0.0,&#34;g&#34;:0.58823531866073608,&#34;b&#34;:0.79215687513351440,&#34;a&#34;:1.0},&#34;position&#34;:0.49519231915473938},{&#34;color&#34;:{&#34;r&#34;:0.58431375026702881,&#34;g&#34;:0.12549020349979401,&#34;b&#34;:0.40784314274787903,&#34;a&#34;:1.0},&#34;position&#34;:0.67307692766189575},{&#34;color&#34;:{&#34;r&#34;:0.93725490570068359,&#34;g&#34;:0.40000000596046448,&#34;b&#34;:0.13333334028720856,&#34;a&#34;:1.0},&#34;position&#34;:0.85096156597137451},{&#34;color&#34;:{&#34;r&#34;:0.96078431606292725,&#34;g&#34;:0.58823531866073608,&#34;b&#34;:0.11372549086809158,&#34;a&#34;:1.0},&#34;position&#34;:0.99038463830947876}],&#34;stopsVar&#34;:[{&#34;color&#34;:{&#34;r&#34;:0.96078431606292725,&#34;g&#34;:0.58823531866073608,&#34;b&#34;:0.11372549086809158,&#34;a&#34;:1.0},&#34;position&#34;:0.0},{&#34;color&#34;:{&#34;r&#34;:1.0,&#34;g&#34;:0.79215687513351440,&#34;b&#34;:0.019607843831181526,&#34;a&#34;:1.0},&#34;position&#34;:0.15384615957736969},{&#34;color&#34;:{&#34;r&#34;:0.42352941632270813,&#34;g&#34;:0.75686275959014893,&#34;b&#34;:0.58039218187332153,&#34;a&#34;:1.0},&#34;position&#34;:0.32692307233810425},{&#34;color&#34;:{&#34;r&#34;:0.0,&#34;g&#34;:0.58823531866073608,&#34;b&#34;:0.79215687513351440,&#34;a&#34;:1.0},&#34;position&#34;:0.49519231915473938},{&#34;color&#34;:{&#34;r&#34;:0.58431375026702881,&#34;g&#34;:0.12549020349979401,&#34;b&#34;:0.40784314274787903,&#34;a&#34;:1.0},&#34;position&#34;:0.67307692766189575},{&#34;color&#34;:{&#34;r&#34;:0.93725490570068359,&#34;g&#34;:0.40000000596046448,&#34;b&#34;:0.13333334028720856,&#34;a&#34;:1.0},&#34;position&#34;:0.85096156597137451},{&#34;color&#34;:{&#34;r&#34;:0.96078431606292725,&#34;g&#34;:0.58823531866073608,&#34;b&#34;:0.11372549086809158,&#34;a&#34;:1.0},&#34;position&#34;:0.99038463830947876}],&#34;transform&#34;:{&#34;m00&#34;:-188.6250,&#34;m01&#34;:314.3750,&#34;m02&#34;:188.62509155273438,&#34;m10&#34;:-308.77215576171875,&#34;m11&#34;:-185.26329040527344,&#34;m12&#34;:476.37606811523438},&#34;opacity&#34;:1.0,&#34;blendMode&#34;:&#34;NORMAL&#34;,&#34;visible&#34;:true}"/> <path d="M281.575 227.293C268.296 221.88 257.917 210.491 253.529 196.316C252.891 194.291 250.108 194.291 249.47 196.316C245.063 210.491 234.684 221.88 221.425 227.293C219.608 228.034 219.608 230.681 221.425 231.423C234.703 236.836 245.083 248.225 249.47 262.4C250.108 264.425 252.891 264.425 253.529 262.4C257.936 248.225 268.316 236.836 281.575 231.423C283.391 230.681 283.391 228.034 281.575 227.293Z" fill="white"/> <defs> <clipPath id="paint0_angular_2050_57169_clip_path"><path d="M251.5 408.446C352.202 408.446 433.838 328.266 433.838 229.358C433.838 130.451 352.202 50.2705 251.5 50.2705C150.798 50.2705 69.1626 130.451 69.1626 229.358C69.1626 328.266 150.798 408.446 251.5 408.446Z"/></clipPath></defs> </svg>